# xmcd CD database file
#
# Track frame offsets:
#	150
#	46774
#	71482
#	99301
#	132968
#	155378
#	171912
#	192345
#	210274
#	234941
#	269954
#	291846
#	306805
#
# Disc length: 4539 seconds
#
# Revision: 0
# Processed by: cddbd v1.5.1PL0 Copyright (c) Steve Scherf et al.
# Submitted via: CDex 1.51
#
DISCID=b511b90d
DTITLE=Hector Lavoe - Los Mejores Exitos De La Salsa Clasica - CD2
DYEAR=1900
DGENRE=Salsa
TTITLE0=El Cantante
TTITLE1=La Murga
TTITLE2=Aguanile
TTITLE3=Mi Gente
TTITLE4=Todo Tiene Su Final
TTITLE5=Ah, Ha, Oh, No
TTITLE6=De Ti Depende
TTITLE7=Ghana E'
TTITLE8=La Verdad
TTITLE9=Songorocosongo
TTITLE10=Te Conozco
TTITLE11=Un Amor De La Calle
TTITLE12=Vamos A Reir Un Poco
EXTD=
EXTT0=
EXTT1=
EXTT2=
EXTT3=
EXTT4=
EXTT5=
EXTT6=
EXTT7=
EXTT8=
EXTT9=
EXTT10=
EXTT11=
EXTT12=
PLAYORDER=
